<svg width="20" height="20" viewBox="0 0 20 20" fill="none" xmlns="http://www.w3.org/2000/svg">
<g id="bell-notification">
<path id="Shape" d="M11.0887 2.32191V2.92485C13.5004 3.32682 15.3763 5.43714 15.3763 7.94942V9.08832C15.3763 10.5957 15.8787 12.0696 16.8167 13.2755L17.3191 13.8784C17.5201 14.1464 17.5536 14.4814 17.4196 14.7493C17.2856 15.0173 17.0176 15.1848 16.7162 15.1848H3.31733C2.98236 15.1848 2.71438 15.0173 2.58039 14.7493C2.4464 14.4814 2.4799 14.1464 2.68088 13.8784L3.18334 13.2755C4.12126 12.0696 4.65721 10.5957 4.65721 9.08832V7.94942C4.65721 5.43714 6.49955 3.32682 8.94484 2.92485V2.32191C8.94484 1.75246 9.4138 1.25 10.0167 1.25C10.5862 1.25 11.0887 1.75246 11.0887 2.32191ZM9.74877 4.46572C7.80594 4.46572 6.26507 6.04008 6.26507 7.94942V9.08832C6.26507 10.6962 5.79611 12.237 4.92519 13.5769H15.0748C14.2039 12.237 13.7684 10.6962 13.7684 9.08832V7.94942C13.7684 6.04008 12.1941 4.46572 10.2847 4.46572H9.74877ZM12.1606 16.2567C12.1606 16.8261 11.9261 17.3956 11.5241 17.7976C11.1222 18.1995 10.5527 18.4005 10.0167 18.4005C9.4473 18.4005 8.87785 18.1995 8.47588 17.7976C8.07392 17.3956 7.87293 16.8261 7.87293 16.2567H12.1606Z" fill="#2A2A2A"/>
</g>
</svg>
