<svg width="20" height="20" viewBox="0 0 20 20" fill="none" xmlns="http://www.w3.org/2000/svg">
<path d="M10.0003 1.66669C5.37793 1.66669 1.66699 5.41018 1.66699 10C1.66699 14.6224 5.37793 18.3334 10.0003 18.3334C14.5902 18.3334 18.3337 14.6224 18.3337 10C18.3337 5.41018 14.5902 1.66669 10.0003 1.66669ZM10.0003 16.7709C6.25684 16.7709 3.22949 13.7435 3.22949 10C3.22949 6.28908 6.25684 3.22919 10.0003 3.22919C13.7113 3.22919 16.7712 6.28908 16.7712 10C16.7712 13.7435 13.7113 16.7709 10.0003 16.7709ZM10.0003 12.6042C9.41439 12.6042 8.95866 13.0599 8.95866 13.6459C8.95866 14.2318 9.38184 14.6875 10.0003 14.6875C10.5537 14.6875 11.042 14.2318 11.042 13.6459C11.042 13.0599 10.5537 12.6042 10.0003 12.6042ZM11.0745 5.83335H9.41439C8.14486 5.83335 7.13574 6.84247 7.13574 8.112C7.13574 8.53518 7.49382 8.89325 7.91699 8.89325C8.34017 8.89325 8.69824 8.53518 8.69824 8.112C8.69824 7.72137 8.99121 7.39585 9.38184 7.39585H11.042C11.4652 7.39585 11.8232 7.72137 11.8232 8.112C11.8232 8.37242 11.693 8.60028 11.4652 8.73049L9.6097 9.83726C9.34928 10 9.21908 10.2604 9.21908 10.5209V11.0417C9.21908 11.4649 9.57715 11.8229 10.0003 11.8229C10.4235 11.8229 10.7816 11.4649 10.7816 11.0417V10.9766L12.2464 10.0651C12.93 9.64195 13.3532 8.89325 13.3532 8.112C13.3857 6.84247 12.3766 5.83335 11.0745 5.83335Z" fill="#2A2A2A"/>
</svg>
