<svg width="10" height="12" viewBox="0 0 10 12" fill="none" xmlns="http://www.w3.org/2000/svg">
<path id="Shape" d="M9.375 10.5833H0.625C0.260417 10.5833 0 10.8437 0 11.2083C0 11.5729 0.260417 11.8333 0.625 11.8333H9.375C9.71354 11.8333 10 11.5729 10 11.2083C10 10.8698 9.71354 10.5833 9.375 10.5833ZM7.86458 4.74999L5.625 7.14582V0.817698C5.625 0.453115 5.33854 0.166656 5 0.166656C4.63542 0.166656 4.375 0.453115 4.375 0.817698V7.14582L2.10938 4.74999C1.97917 4.61978 1.82292 4.5677 1.66667 4.5677C1.51042 4.5677 1.35417 4.61978 1.22396 4.72395C0.963542 4.95832 0.963542 5.34895 1.19792 5.60936L4.53125 9.15103C4.76562 9.41145 5.20833 9.41145 5.44271 9.15103L8.77604 5.60936C9.01042 5.34895 9.01042 4.95832 8.75 4.72395C8.48958 4.48957 8.09896 4.48957 7.86458 4.74999Z" fill="#1F1F1F"/>
</svg>
