<svg width="209" height="130" viewBox="0 0 209 130" fill="none" xmlns="http://www.w3.org/2000/svg">
<path d="M74.1194 52.6814C72.3065 52.9867 69.4329 55.2648 68.2227 56.3656C81.1444 54.469 108.644 50.4511 115.269 49.5527C123.549 48.4297 129.573 49.4928 133.177 56.204C136.782 62.9152 131.64 69.3171 130.887 70.0458C130.285 70.6288 118.369 81.8604 112.486 87.4033C127.899 88.6048 162.484 90.7337 165.141 91.0038C168.463 91.3414 175.971 95.8727 174.416 105.377C172.861 114.881 164.239 115.873 162.593 115.866C160.948 115.86 107.462 112.175 105.475 112.038C103.488 111.9 83.3238 110.881 79.9393 109.893C76.5548 108.905 72.0277 104.58 71.5126 99.2137C70.9976 93.8471 73.7977 90.4601 74.6975 89.5531C75.5973 88.6461 82.5326 82.0722 85.2321 79.3513C82.5464 78.7884 37.2864 87.0712 33.0645 87.6405C28.8426 88.2098 26.1569 87.647 24.9536 87.106L24.9304 87.0956C23.6814 86.5343 18.2475 84.0925 17.2257 76.8516C16.1974 69.5649 22.831 64.9893 25.6241 63.2441C28.4173 61.499 31.2174 58.1119 43.1165 44.9891C55.0155 31.8662 66.6166 27.6345 72.8254 27.2027C79.0343 26.771 82.6529 30.1984 83.7868 31.7308C84.9208 33.2632 87.376 38.2794 85.462 44.0432C83.5479 49.807 76.3855 52.2998 74.1194 52.6814Z" fill="#FFF380"/>
<path fill-rule="evenodd" clip-rule="evenodd" d="M171.933 16.3247C172.892 16.2915 173.697 17.0425 173.73 18.002C173.76 18.8726 173.801 20.0432 173.883 21.1287C173.972 22.3025 174.094 23.0982 174.198 23.3783C174.533 24.2781 174.075 25.279 173.175 25.6139C172.276 25.9488 171.275 25.4909 170.94 24.5911C170.635 23.7712 170.498 22.4711 170.416 21.3914C170.328 20.229 170.286 18.9945 170.256 18.1344L170.255 18.1221C170.222 17.1626 170.973 16.3579 171.933 16.3247Z" fill="#20025B"/>
<path fill-rule="evenodd" clip-rule="evenodd" d="M172.967 37.9762C172.007 37.9625 171.24 37.1732 171.253 36.2132C171.266 35.3421 171.282 34.171 171.253 33.0827C171.222 31.9059 171.139 31.1053 171.048 30.8204C170.758 29.9053 171.264 28.928 172.179 28.6374C173.094 28.3468 174.071 28.853 174.362 29.768C174.627 30.6019 174.7 31.9071 174.729 32.9895C174.76 34.1549 174.742 35.39 174.73 36.2504L174.73 36.2628C174.716 37.2228 173.927 37.9899 172.967 37.9762Z" fill="#20025B"/>
<path fill-rule="evenodd" clip-rule="evenodd" d="M162.484 27.1258C162.756 26.205 163.723 25.679 164.643 25.951C164.911 26.0298 165.775 26.1012 166.837 26.0645C167.326 26.0475 167.783 26.0102 168.14 25.9596C168.451 25.9155 168.571 25.8764 168.572 25.8801C168.572 25.8808 168.568 25.8831 168.56 25.8873C169.396 25.4643 170.421 25.7798 170.872 26.6077C171.331 27.451 171.019 28.5067 170.176 28.9655C169.686 29.2319 169.051 29.342 168.628 29.4019C168.119 29.4741 167.534 29.5192 166.957 29.5391C165.886 29.5762 164.518 29.539 163.659 29.2853C162.738 29.0134 162.212 28.0466 162.484 27.1258Z" fill="#20025B"/>
<path fill-rule="evenodd" clip-rule="evenodd" d="M184.437 26.7632C184.397 27.7224 183.586 28.4672 182.627 28.4267C181.757 28.3899 180.587 28.3407 179.498 28.3395C178.321 28.3382 177.518 28.3986 177.231 28.4811C176.308 28.746 175.345 28.2127 175.08 27.2899C174.815 26.3671 175.349 25.4042 176.271 25.1393C177.112 24.8979 178.419 24.8616 179.502 24.8628C180.668 24.8641 181.902 24.9162 182.762 24.9525L182.774 24.953C183.733 24.9935 184.478 25.804 184.437 26.7632Z" fill="#20025B"/>
<path d="M105.938 62.2155C106.894 61.0345 109.204 58.8781 110.799 59.7009C112.793 60.7294 112.154 63.6954 112.932 65.3525C113.711 67.0096 115.79 67.2973 119.201 65.2903C122.612 63.2834 124.2 65.6726 124.382 67.3356C124.498 68.3997 124.55 71.0662 126.419 72.3097C128.519 73.7072 130.204 73.3205 132.016 72.6859" stroke="#6A28EA" stroke-width="3" stroke-linecap="round" stroke-linejoin="round"/>
<path d="M118.548 38.3966C119.439 37.601 121.717 36.1709 123.696 36.8147C126.168 37.6195 125.968 40.1843 126.029 41.0002C126.089 41.816 126.838 45.3408 130.652 43.8559C134.467 42.371 135.737 42.0847 137.067 42.9277C138.397 43.7708 137.091 47.6889 139.329 49.1169C141.846 50.7226 144.935 49.9176 144.935 49.9176" stroke="#6A28EA" stroke-width="3" stroke-linecap="round" stroke-linejoin="round"/>
<path d="M123.676 114.625L158.385 47.342C159.728 44.7378 158.738 41.5375 156.16 40.1461L116.851 113.427L67.6934 89.1026C66.4002 91.5434 67.3486 94.5704 69.8035 95.8368L112.899 118.068C116.825 120.093 121.65 118.552 123.676 114.625Z" fill="#20025B"/>
<rect x="104.733" y="11.0208" width="59.4852" height="86.5436" rx="8.5" transform="rotate(27.2872 104.733 11.0208)" stroke="#20025B" stroke-width="3"/>
<circle cx="108.323" cy="30.3956" r="5.48518" transform="rotate(27.2872 108.323 30.3956)" stroke="#20025B" stroke-width="3"/>
<circle cx="96.3209" cy="53.8389" r="5.48518" transform="rotate(27.2872 96.3209 53.8389)" stroke="#20025B" stroke-width="3"/>
<circle cx="83.8536" cy="76.5587" r="5.48518" transform="rotate(27.2872 83.8536 76.5587)" stroke="#20025B" stroke-width="3"/>
<path d="M107.31 28.7061L108.134 32.5841L118.424 27.8481" stroke="#20025B" stroke-width="3" stroke-linecap="round" stroke-linejoin="round"/>
<path d="M95.2875 51.8399L96.112 55.7179L106.402 50.9819" stroke="#20025B" stroke-width="3" stroke-linecap="round" stroke-linejoin="round"/>
<path d="M83.5478 74.4708L84.3722 78.3487L94.6623 73.6128" stroke="#20025B" stroke-width="3" stroke-linecap="round" stroke-linejoin="round"/>
<path d="M93.5442 83.2869C94.682 82.0952 97.1853 80.9449 99.2165 82.1183C101.756 83.585 100.483 87.2426 102.273 88.5746C103.785 89.6996 105.7 88.9297 107.023 87.8859C108.346 86.8421 109.841 86.9857 110.833 87.4973C111.824 88.0088 112.932 89.2081 112.721 91.1392C112.509 93.0702 112.929 94.3856 114.789 95.3447C116.648 96.3039 119.167 96.0502 120.655 92.8096" stroke="#6A28EA" stroke-width="3" stroke-linecap="round" stroke-linejoin="round"/>
<path d="M47.5209 43.7609L61.007 64.3784L76.6662 67.4576L77.8479 53.3388C74.106 47.5003 66.1536 35.1785 64.2796 32.5988C62.8887 32.6442 56.4597 37.2268 56.0319 37.7805C55.6041 38.3342 52.6044 40.6146 51.5625 41.0475C50.729 41.3939 48.5208 43.0007 47.5209 43.7609Z" fill="#AB80FF"/>
<path d="M66.6392 54.1119L61.5579 64.2748L76.5644 67.9698L78.1504 52.3359L66.6392 54.1119Z" fill="#FFF1C6"/>
<path d="M77.0119 60.8291C73.6401 60.6763 70.3949 64.2054 69.1937 65.989L74.1807 68.0012L77.6807 69.5012C77.8064 68.3211 76.9543 63.2841 77.0119 60.8291Z" fill="#20025B"/>
<path d="M61.6209 64.4995L77.9063 70.0011L77.9064 52.5003L58.872 24.1477C55.7614 19.5143 49.4837 18.2799 44.8504 21.3905C40.217 24.501 38.9826 30.7787 42.0931 35.4121L61.6209 64.4995Z" stroke="#20025B" stroke-width="3" stroke-linecap="round" stroke-linejoin="round"/>
<path d="M66.885 53.9478L52.4961 32.5149" stroke="#20025B" stroke-width="3" stroke-linecap="round" stroke-linejoin="round"/>
<path d="M61.7837 64.2129L66.6603 54.0098L77.6817 52.5627" stroke="#20025B" stroke-width="3" stroke-linecap="round" stroke-linejoin="round"/>
<path d="M60.5168 26.8629L44.2278 37.7984L41.783 34.5538L40.6854 30.4046L41.8527 24.4685L46.7281 20.2182L52.2497 19.7094L57.2699 22.2912L60.5168 26.8629Z" fill="#20025B"/>
<path d="M20.1753 108.26C29.8104 106.632 31.4801 98.0909 31.1105 94.0241C33.4459 102.206 36.5384 103.589 44.2631 104.189C36.0816 106.525 34.3981 113.48 34.2544 118.269C33.002 110.857 28.6699 107.777 20.1753 108.26Z" fill="white"/>
<path fill-rule="evenodd" clip-rule="evenodd" d="M34.8322 88.5385C35.599 88.3955 36.3487 88.8595 36.5628 89.6096C37.6995 93.5916 38.9323 95.5748 40.5404 96.718C42.1975 97.896 44.5146 98.3823 48.379 98.6827C49.1085 98.7394 49.6927 99.3105 49.7659 100.039C49.8391 100.767 49.3804 101.443 48.6768 101.643C44.9864 102.697 42.8389 104.751 41.5645 107.044C40.2638 109.384 39.8319 112.053 39.7641 114.314C39.7407 115.091 39.1322 115.724 38.3569 115.777C37.5815 115.83 36.8921 115.287 36.7626 114.521C36.1778 111.06 34.9221 108.865 33.0536 107.536C31.1495 106.183 28.3432 105.537 24.2598 105.769C23.4587 105.815 22.7616 105.226 22.6719 104.429C22.5822 103.632 23.131 102.903 23.9222 102.77C28.2606 102.036 30.7053 99.7923 32.0708 97.3248C33.4736 94.7901 33.7666 91.9523 33.6038 90.1613C33.5332 89.3844 34.0653 88.6814 34.8322 88.5385ZM35.9073 95.9961C35.614 96.9284 35.2236 97.8715 34.716 98.7888C33.7977 100.448 32.5032 102.005 30.742 103.248C32.2651 103.633 33.6224 104.231 34.8053 105.072C36.0082 105.927 36.9794 106.997 37.7467 108.263C38.0484 107.358 38.4335 106.454 38.9221 105.575C39.874 103.862 41.2047 102.275 43.0238 100.993C41.4254 100.615 40.0173 100.055 38.7887 99.1821C37.6381 98.3641 36.7013 97.314 35.9073 95.9961Z" fill="#20025B"/>
</svg>
